<svg viewBox="0 0 100 100" version="1.1" baseProfile="full" width="100" height="100" xmlns="http://www.w3.org/2000/svg">

  <style>
    .port {
      fill: #888;
    }
    .p-terminal {
      fill: #f00;
    }
    .p {
      stroke: #f00;
      stroke-width: 4;
    }
    .b-terminal {
      fill: #ff0;
    }
    .b {
      stroke: #ff0;
      stroke-width: 4;
    }
  </style>

  <rect width="100%" height="100%" fill="#111" />

  <circle class='port' cx="20" cy="20" r="6" />
  <circle class='port' cx="40" cy="20" r="6" />
  <circle class='port' cx="60" cy="20" r="6" />
  <circle class='port' cx="80" cy="20" r="6" />

  <circle class='port' cx="20" cy="40" r="6" />
  <circle class='port' cx="40" cy="40" r="6" />
  <circle class='port' cx="60" cy="40" r="6" />
  <circle class='port' cx="80" cy="40" r="6" />

  <circle class='port' cx="20" cy="60" r="6" />
  <circle class='port' cx="40" cy="60" r="6" />
  <circle class='port' cx="60" cy="60" r="6" />
  <circle class='port' cx="80" cy="60" r="6" />

  <circle class='port' cx="20" cy="80" r="6" />
  <circle class='port' cx="40" cy="80" r="6" />
  <circle class='port' cx="60" cy="80" r="6" />
  <circle class='port' cx="80" cy="80" r="6" />

  <rect class="p-terminal" x="16" y="36" width="8" height="8" />
  <line class="p" x1="20" y1="40" x2="20" y2="80" />
  <rect class="p-terminal" x="16" y="76" width="8" height="8" />

  <rect class="p-terminal" x="36" y="36" width="8" height="8" />
  <line class="p" x1="40" y1="40" x2="40" y2="60" />
  <rect class="p-terminal" x="36" y="56" width="8" height="8" />

  <rect class="b-terminal" x="56" y="16" width="8" height="8" />
  <line class="b" x1="60" y1="20" x2="60" y2="60" />
  <rect class="b-terminal" x="56" y="56" width="8" height="8" />

  <rect class="b-terminal" x="76" y="36" width="8" height="8" />
  <line class="b" x1="80" y1="40" x2="80" y2="60" />
  <rect class="b-terminal" x="76" y="56" width="8" height="8" />

</svg>
